<svg xmlns="http://www.w3.org/2000/svg" xmlns:xlink="http://www.w3.org/1999/xlink" width="200" zoomAndPan="magnify" viewBox="0 0 150 41.25" height="55" preserveAspectRatio="xMidYMid meet" version="1.0"><defs><g/><clipPath id="9ed7ff2a5a"><path d="M 14 30 L 19 30 L 19 33.265625 L 14 33.265625 Z M 14 30 " clip-rule="nonzero"/></clipPath><clipPath id="7f1b8000d4"><path d="M 10.070312 11 L 23.328125 11 L 23.328125 27 L 10.070312 27 Z M 10.070312 11 " clip-rule="nonzero"/></clipPath><clipPath id="a7c98e062b"><path d="M 13 7.484375 L 21 7.484375 L 21 12 L 13 12 Z M 13 7.484375 " clip-rule="nonzero"/></clipPath></defs><g fill="#ecf9fc" fill-opacity="1"><g transform="translate(32.411298, 19.896406)"><g><path d="M 0.597656 -10.566406 L 0.597656 0 L 9.128906 0 L 9.128906 -2.566406 L 3.925781 -2.566406 L 3.925781 -10.566406 Z M 0.597656 -10.566406 "/></g></g></g><g fill="#ecf9fc" fill-opacity="1"><g transform="translate(41.60533, 19.896406)"><g><path d="M 0.597656 -10.566406 L 0.597656 -1.507812 C 0.597656 -0.679688 1.289062 0 2.117188 0 L 8.300781 0 C 9.128906 0 9.808594 -0.679688 9.808594 -1.507812 L 9.808594 -10.566406 L 6.492188 -10.566406 L 6.492188 -2.867188 C 6.492188 -2.703125 6.355469 -2.566406 6.195312 -2.566406 L 4.222656 -2.566406 C 4.0625 -2.566406 3.925781 -2.703125 3.925781 -2.867188 L 3.925781 -10.566406 Z M 0.597656 -10.566406 "/></g></g></g><g fill="#ecf9fc" fill-opacity="1"><g transform="translate(52.008029, 19.896406)"><g><path d="M 0.597656 -10.566406 L 0.597656 0 L 3.925781 0 L 3.925781 -10.566406 Z M 0.597656 -10.566406 "/></g></g></g><g fill="#ecf9fc" fill-opacity="1"><g transform="translate(56.530356, 19.896406)"><g><path d="M 0.597656 -10.566406 L 0.597656 -8 L 4.714844 -8 L 0.597656 -1.804688 L 0.597656 0 L 9.210938 0 L 9.210938 -2.566406 L 5.09375 -2.566406 L 9.210938 -8.746094 L 9.210938 -10.566406 Z M 0.597656 -10.566406 "/></g></g></g><g fill="#ecf9fc" fill-opacity="1"><g transform="translate(66.335512, 19.896406)"><g/></g></g><g fill="#ecf9fc" fill-opacity="1"><g transform="translate(70.857838, 19.896406)"><g><path d="M 0.597656 -10.566406 L 0.597656 0 L 3.925781 0 L 3.925781 -3.476562 L 4.101562 -3.476562 L 6.574219 0 L 10.636719 0 L 8.175781 -3.476562 L 8.300781 -3.476562 C 9.128906 -3.476562 9.808594 -4.15625 9.808594 -4.984375 L 9.808594 -9.058594 C 9.808594 -9.886719 9.128906 -10.566406 8.300781 -10.566406 Z M 3.925781 -6.03125 L 3.925781 -8 L 6.195312 -8 C 6.355469 -8 6.492188 -7.863281 6.492188 -7.703125 L 6.492188 -6.34375 C 6.492188 -6.179688 6.355469 -6.03125 6.195312 -6.03125 Z M 3.925781 -6.03125 "/></g></g></g><g fill="#ecf9fc" fill-opacity="1"><g transform="translate(81.559313, 19.896406)"><g><path d="M 2.8125 -10.566406 L 0.148438 0 L 3.574219 0 L 3.953125 -1.507812 L 7.210938 -1.507812 L 7.59375 0 L 11.015625 0 L 8.367188 -10.566406 Z M 4.589844 -4.074219 L 5.582031 -8 L 6.574219 -4.074219 Z M 4.589844 -4.074219 "/></g></g></g><g fill="#ecf9fc" fill-opacity="1"><g transform="translate(92.722524, 19.896406)"><g><path d="M 0.597656 -10.566406 L 0.597656 0 L 3.925781 0 L 3.925781 -5.324219 L 5.230469 -1.507812 L 6.847656 -1.507812 L 8.148438 -5.324219 L 8.148438 0 L 11.464844 0 L 11.464844 -10.566406 L 8.148438 -10.566406 L 6.03125 -5.3125 L 3.925781 -10.566406 Z M 0.597656 -10.566406 "/></g></g></g><g fill="#ecf9fc" fill-opacity="1"><g transform="translate(104.782053, 19.896406)"><g><path d="M 2.117188 -10.566406 C 1.289062 -10.566406 0.597656 -9.886719 0.597656 -9.058594 L 0.597656 -1.507812 C 0.597656 -0.679688 1.289062 0 2.117188 0 L 8.300781 0 C 9.128906 0 9.808594 -0.679688 9.808594 -1.507812 L 9.808594 -9.058594 C 9.808594 -9.886719 9.128906 -10.566406 8.300781 -10.566406 Z M 4.222656 -8 L 6.195312 -8 C 6.355469 -8 6.492188 -7.863281 6.492188 -7.703125 L 6.492188 -2.867188 C 6.492188 -2.703125 6.355469 -2.566406 6.195312 -2.566406 L 4.222656 -2.566406 C 4.0625 -2.566406 3.925781 -2.703125 3.925781 -2.867188 L 3.925781 -7.703125 C 3.925781 -7.863281 4.0625 -8 4.222656 -8 Z M 4.222656 -8 "/></g></g></g><g fill="#ecf9fc" fill-opacity="1"><g transform="translate(115.184752, 19.896406)"><g><path d="M 2.117188 -10.566406 C 1.289062 -10.566406 0.597656 -9.886719 0.597656 -9.058594 L 0.597656 -5.515625 C 0.597656 -4.6875 1.289062 -3.992188 2.117188 -3.992188 L 6.195312 -3.992188 C 6.355469 -3.992188 6.492188 -3.859375 6.492188 -3.695312 L 6.492188 -2.867188 C 6.492188 -2.703125 6.355469 -2.566406 6.195312 -2.566406 L 0.910156 -2.566406 L 0.910156 0 L 8.300781 0 C 9.128906 0 9.808594 -0.679688 9.808594 -1.507812 L 9.808594 -5.054688 C 9.808594 -5.882812 9.128906 -6.5625 8.300781 -6.5625 L 4.222656 -6.5625 C 4.0625 -6.5625 3.925781 -6.710938 3.925781 -6.875 L 3.925781 -7.703125 C 3.925781 -7.863281 4.0625 -8 4.222656 -8 L 9.507812 -8 L 9.507812 -10.566406 Z M 2.117188 -10.566406 "/></g></g></g><g fill="#ecf9fc" fill-opacity="1"><g transform="translate(29.238274, 32.432935)"><g><path d="M 0.902344 -3.828125 C 0.59375 -3.828125 0.355469 -3.589844 0.355469 -3.28125 L 0.355469 -2.210938 C 0.355469 -1.90625 0.59375 -1.664062 0.902344 -1.664062 L 2.390625 -1.664062 C 2.519531 -1.664062 2.625 -1.558594 2.625 -1.433594 L 2.625 -0.726562 C 2.625 -0.601562 2.519531 -0.503906 2.390625 -0.503906 L 0.460938 -0.503906 L 0.460938 0 L 2.597656 0 C 2.902344 0 3.144531 -0.242188 3.144531 -0.546875 L 3.144531 -1.621094 C 3.144531 -1.925781 2.902344 -2.164062 2.597656 -2.164062 L 1.109375 -2.164062 C 0.980469 -2.164062 0.875 -2.269531 0.875 -2.398438 L 0.875 -3.101562 C 0.875 -3.230469 0.980469 -3.328125 1.109375 -3.328125 L 3.035156 -3.328125 L 3.035156 -3.828125 Z M 0.902344 -3.828125 "/></g></g></g><g fill="#ecf9fc" fill-opacity="1"><g transform="translate(35.279382, 32.432935)"><g><path d="M 0.902344 -3.828125 C 0.605469 -3.828125 0.355469 -3.578125 0.355469 -3.28125 L 0.355469 -0.546875 C 0.355469 -0.25 0.605469 0 0.902344 0 L 2.597656 0 C 2.894531 0 3.144531 -0.25 3.144531 -0.546875 L 3.144531 -3.28125 C 3.144531 -3.578125 2.894531 -3.828125 2.597656 -3.828125 Z M 1.109375 -3.328125 L 2.390625 -3.328125 C 2.519531 -3.328125 2.625 -3.230469 2.625 -3.101562 L 2.625 -0.726562 C 2.625 -0.601562 2.519531 -0.503906 2.390625 -0.503906 L 1.109375 -0.503906 C 0.980469 -0.503906 0.875 -0.601562 0.875 -0.726562 L 0.875 -3.101562 C 0.875 -3.230469 0.980469 -3.328125 1.109375 -3.328125 Z M 1.109375 -3.328125 "/></g></g></g><g fill="#ecf9fc" fill-opacity="1"><g transform="translate(41.320489, 32.432935)"><g><path d="M 0.355469 -3.828125 L 0.355469 0 L 0.875 0 L 0.875 -1.664062 L 2.347656 -1.664062 L 2.347656 -2.164062 L 0.875 -2.164062 L 0.875 -3.328125 L 2.894531 -3.328125 L 2.894531 -3.828125 Z M 0.355469 -3.828125 "/></g></g></g><g fill="#ecf9fc" fill-opacity="1"><g transform="translate(46.781339, 32.432935)"><g><path d="M 0.0546875 -3.828125 L 0.0546875 -3.328125 L 1.1875 -3.328125 L 1.1875 0 L 1.714844 0 L 1.714844 -3.328125 L 2.84375 -3.328125 L 2.84375 -3.828125 Z M 0.0546875 -3.828125 "/></g></g></g><g fill="#ecf9fc" fill-opacity="1"><g transform="translate(52.217604, 32.432935)"><g><path d="M 0.0546875 -3.828125 L 1.046875 0 L 1.566406 0 L 2.296875 -2.96875 L 3.03125 0 L 3.550781 0 L 4.539062 -3.828125 L 4 -3.828125 L 3.28125 -0.875 L 2.554688 -3.828125 L 2.039062 -3.828125 L 1.3125 -0.875 L 0.589844 -3.828125 Z M 0.0546875 -3.828125 "/></g></g></g><g fill="#ecf9fc" fill-opacity="1"><g transform="translate(59.350376, 32.432935)"><g><path d="M 1.332031 -3.828125 L 0.0546875 0 L 0.59375 0 L 0.945312 -1.015625 L 2.558594 -1.015625 L 2.910156 0 L 3.445312 0 L 2.164062 -3.828125 Z M 1.117188 -1.515625 L 1.753906 -3.375 L 2.386719 -1.515625 Z M 1.117188 -1.515625 "/></g></g></g><g fill="#ecf9fc" fill-opacity="1"><g transform="translate(65.391485, 32.432935)"><g><path d="M 0.355469 -3.828125 L 0.355469 0 L 0.875 0 L 0.875 -1.324219 L 1.9375 -1.324219 L 2.8125 0 L 3.441406 0 L 2.574219 -1.324219 L 2.597656 -1.324219 C 2.902344 -1.324219 3.144531 -1.570312 3.144531 -1.875 L 3.144531 -3.28125 C 3.144531 -3.589844 2.902344 -3.828125 2.597656 -3.828125 Z M 0.875 -1.832031 L 0.875 -3.328125 L 2.390625 -3.328125 C 2.519531 -3.328125 2.625 -3.230469 2.625 -3.101562 L 2.625 -2.050781 C 2.625 -1.925781 2.519531 -1.832031 2.390625 -1.832031 Z M 0.875 -1.832031 "/></g></g></g><g fill="#ecf9fc" fill-opacity="1"><g transform="translate(71.398169, 32.432935)"><g><path d="M 0.355469 -3.828125 L 0.355469 0 L 2.894531 0 L 2.894531 -0.503906 L 0.875 -0.503906 L 0.875 -1.664062 L 2.347656 -1.664062 L 2.347656 -2.164062 L 0.875 -2.164062 L 0.875 -3.328125 L 2.894531 -3.328125 L 2.894531 -3.828125 Z M 0.355469 -3.828125 "/></g></g></g><g fill="#ecf9fc" fill-opacity="1"><g transform="translate(76.913112, 32.432935)"><g/></g></g><g fill="#ecf9fc" fill-opacity="1"><g transform="translate(80.918404, 32.432935)"><g><path d="M 0.875 -3.328125 L 2.125 -3.328125 C 2.398438 -3.328125 2.625 -3.105469 2.625 -2.835938 L 2.625 -0.996094 C 2.625 -0.722656 2.398438 -0.503906 2.125 -0.503906 L 0.875 -0.503906 Z M 0.355469 -3.828125 L 0.355469 0 L 2.324219 0 C 2.769531 0 3.144531 -0.375 3.144531 -0.820312 L 3.144531 -3.007812 C 3.144531 -3.457031 2.769531 -3.828125 2.324219 -3.828125 Z M 0.355469 -3.828125 "/></g></g></g><g fill="#ecf9fc" fill-opacity="1"><g transform="translate(86.959512, 32.432935)"><g><path d="M 0.355469 -3.828125 L 0.355469 0 L 2.894531 0 L 2.894531 -0.503906 L 0.875 -0.503906 L 0.875 -1.664062 L 2.347656 -1.664062 L 2.347656 -2.164062 L 0.875 -2.164062 L 0.875 -3.328125 L 2.894531 -3.328125 L 2.894531 -3.828125 Z M 0.355469 -3.828125 "/></g></g></g><g fill="#ecf9fc" fill-opacity="1"><g transform="translate(92.474456, 32.432935)"><g><path d="M 0.0546875 -3.828125 L 1.332031 0 L 2.164062 0 L 3.445312 -3.828125 L 2.910156 -3.828125 L 1.753906 -0.453125 L 0.59375 -3.828125 Z M 0.0546875 -3.828125 "/></g></g></g><g fill="#ecf9fc" fill-opacity="1"><g transform="translate(98.51556, 32.432935)"><g><path d="M 0.355469 -3.828125 L 0.355469 0 L 2.894531 0 L 2.894531 -0.503906 L 0.875 -0.503906 L 0.875 -1.664062 L 2.347656 -1.664062 L 2.347656 -2.164062 L 0.875 -2.164062 L 0.875 -3.328125 L 2.894531 -3.328125 L 2.894531 -3.828125 Z M 0.355469 -3.828125 "/></g></g></g><g fill="#ecf9fc" fill-opacity="1"><g transform="translate(104.030504, 32.432935)"><g><path d="M 0.355469 -3.828125 L 0.355469 0 L 2.894531 0 L 2.894531 -0.503906 L 0.875 -0.503906 L 0.875 -3.828125 Z M 0.355469 -3.828125 "/></g></g></g><g fill="#ecf9fc" fill-opacity="1"><g transform="translate(109.491356, 32.432935)"><g><path d="M 0.902344 -3.828125 C 0.605469 -3.828125 0.355469 -3.578125 0.355469 -3.28125 L 0.355469 -0.546875 C 0.355469 -0.25 0.605469 0 0.902344 0 L 2.597656 0 C 2.894531 0 3.144531 -0.25 3.144531 -0.546875 L 3.144531 -3.28125 C 3.144531 -3.578125 2.894531 -3.828125 2.597656 -3.828125 Z M 1.109375 -3.328125 L 2.390625 -3.328125 C 2.519531 -3.328125 2.625 -3.230469 2.625 -3.101562 L 2.625 -0.726562 C 2.625 -0.601562 2.519531 -0.503906 2.390625 -0.503906 L 1.109375 -0.503906 C 0.980469 -0.503906 0.875 -0.601562 0.875 -0.726562 L 0.875 -3.101562 C 0.875 -3.230469 0.980469 -3.328125 1.109375 -3.328125 Z M 1.109375 -3.328125 "/></g></g></g><g fill="#ecf9fc" fill-opacity="1"><g transform="translate(115.532464, 32.432935)"><g><path d="M 0.355469 -3.828125 L 0.355469 0 L 0.875 0 L 0.875 -1.09375 L 2.597656 -1.09375 C 2.902344 -1.09375 3.144531 -1.332031 3.144531 -1.640625 L 3.144531 -3.28125 C 3.144531 -3.589844 2.902344 -3.828125 2.597656 -3.828125 Z M 0.875 -1.59375 L 0.875 -3.328125 L 2.390625 -3.328125 C 2.519531 -3.328125 2.625 -3.230469 2.625 -3.101562 L 2.625 -1.820312 C 2.625 -1.691406 2.519531 -1.59375 2.390625 -1.59375 Z M 0.875 -1.59375 "/></g></g></g><g fill="#ecf9fc" fill-opacity="1"><g transform="translate(121.573572, 32.432935)"><g><path d="M 0.355469 -3.828125 L 0.355469 0 L 2.894531 0 L 2.894531 -0.503906 L 0.875 -0.503906 L 0.875 -1.664062 L 2.347656 -1.664062 L 2.347656 -2.164062 L 0.875 -2.164062 L 0.875 -3.328125 L 2.894531 -3.328125 L 2.894531 -3.828125 Z M 0.355469 -3.828125 "/></g></g></g><g fill="#ecf9fc" fill-opacity="1"><g transform="translate(127.088516, 32.432935)"><g><path d="M 0.355469 -3.828125 L 0.355469 0 L 0.875 0 L 0.875 -1.324219 L 1.9375 -1.324219 L 2.8125 0 L 3.441406 0 L 2.574219 -1.324219 L 2.597656 -1.324219 C 2.902344 -1.324219 3.144531 -1.570312 3.144531 -1.875 L 3.144531 -3.28125 C 3.144531 -3.589844 2.902344 -3.828125 2.597656 -3.828125 Z M 0.875 -1.832031 L 0.875 -3.328125 L 2.390625 -3.328125 C 2.519531 -3.328125 2.625 -3.230469 2.625 -3.101562 L 2.625 -2.050781 C 2.625 -1.925781 2.519531 -1.832031 2.390625 -1.832031 Z M 0.875 -1.832031 "/></g></g></g><g fill="#ecf9fc" fill-opacity="1"><g transform="translate(133.093138, 32.432935)"><g/></g></g><path fill="#ecf9fc" d="M 18.988281 28.113281 L 13.769531 26.941406 C 13.753906 26.941406 13.742188 26.9375 13.726562 26.929688 C 13.632812 26.90625 13.539062 26.867188 13.457031 26.824219 C 13.273438 26.734375 13.121094 26.609375 13.035156 26.460938 C 12.984375 26.371094 12.9375 26.230469 12.984375 26.070312 C 13.046875 25.890625 13.222656 25.75 13.453125 25.664062 C 13.535156 25.632812 13.628906 25.613281 13.722656 25.601562 C 13.78125 25.59375 13.832031 25.582031 13.890625 25.582031 C 14 25.582031 14.109375 25.59375 14.21875 25.617188 L 16.472656 26.125 L 16.746094 26.183594 L 19.4375 26.785156 C 19.453125 26.789062 19.464844 26.796875 19.480469 26.800781 C 19.574219 26.824219 19.667969 26.863281 19.75 26.902344 C 19.933594 26.992188 20.085938 27.117188 20.167969 27.265625 C 20.21875 27.355469 20.265625 27.496094 20.21875 27.65625 C 20.15625 27.835938 19.980469 27.976562 19.75 28.0625 C 19.617188 28.109375 19.476562 28.144531 19.316406 28.144531 C 19.214844 28.144531 19.113281 28.128906 19.015625 28.109375 C 19.007812 28.105469 18.996094 28.109375 18.988281 28.105469 Z M 18.28125 26.976562 C 18.265625 27.050781 18.3125 27.125 18.382812 27.144531 L 19.4375 27.378906 C 19.445312 27.382812 19.457031 27.382812 19.464844 27.382812 C 19.46875 27.382812 19.472656 27.378906 19.480469 27.378906 C 19.535156 27.375 19.585938 27.332031 19.601562 27.273438 C 19.617188 27.199219 19.570312 27.125 19.496094 27.105469 L 19.480469 27.101562 L 18.445312 26.871094 C 18.371094 26.855469 18.296875 26.902344 18.28125 26.976562 Z M 18.28125 26.976562 " fill-opacity="1" fill-rule="evenodd"/><path fill="#ecf9fc" d="M 14.21875 27.359375 L 17.609375 28.117188 L 18.855469 28.394531 L 19.4375 28.523438 C 19.773438 28.597656 20.042969 28.777344 20.171875 29.003906 C 20.222656 29.09375 20.269531 29.234375 20.222656 29.394531 C 20.128906 29.679688 19.757812 29.878906 19.316406 29.878906 C 19.242188 29.878906 19.167969 29.867188 19.089844 29.855469 C 19.054688 29.847656 19.019531 29.851562 18.988281 29.84375 L 18.769531 29.792969 L 15.058594 28.960938 L 14.722656 28.886719 L 13.769531 28.671875 C 13.433594 28.597656 13.164062 28.421875 13.035156 28.195312 C 12.984375 28.105469 12.9375 27.960938 12.984375 27.804688 C 13.046875 27.621094 13.222656 27.484375 13.453125 27.398438 C 13.535156 27.367188 13.628906 27.347656 13.722656 27.332031 C 13.78125 27.328125 13.832031 27.3125 13.890625 27.3125 C 14 27.3125 14.109375 27.328125 14.21875 27.351562 Z M 18.425781 28.84375 L 19.4375 29.066406 C 19.445312 29.070312 19.457031 29.070312 19.464844 29.070312 C 19.527344 29.070312 19.585938 29.027344 19.597656 28.960938 C 19.617188 28.886719 19.570312 28.8125 19.492188 28.796875 L 18.4375 28.558594 C 18.363281 28.539062 18.292969 28.585938 18.273438 28.664062 C 18.273438 28.6875 18.28125 28.703125 18.289062 28.722656 C 18.300781 28.769531 18.332031 28.816406 18.382812 28.828125 L 18.425781 28.839844 Z M 18.425781 28.84375 " fill-opacity="1" fill-rule="evenodd"/><path fill="#ecf9fc" d="M 14.800781 29.222656 L 18.890625 30.140625 L 19.195312 30.207031 L 19.4375 30.261719 C 19.769531 30.339844 20.042969 30.515625 20.171875 30.742188 C 20.222656 30.835938 20.269531 30.972656 20.222656 31.132812 C 20.128906 31.417969 19.757812 31.621094 19.320312 31.621094 C 19.261719 31.621094 19.207031 31.605469 19.148438 31.597656 C 19.101562 31.59375 19.042969 31.59375 18.988281 31.582031 L 18.875 31.554688 L 14.238281 30.515625 L 13.972656 30.457031 L 13.769531 30.410156 C 13.433594 30.335938 13.164062 30.15625 13.035156 29.929688 C 12.960938 29.800781 12.945312 29.664062 12.984375 29.539062 C 13.078125 29.253906 13.449219 29.054688 13.886719 29.054688 C 13.996094 29.054688 14.105469 29.066406 14.214844 29.089844 L 14.5 29.15625 Z M 18.445312 30.292969 C 18.371094 30.277344 18.296875 30.324219 18.28125 30.398438 C 18.265625 30.476562 18.3125 30.546875 18.382812 30.566406 L 18.984375 30.699219 L 19.261719 30.757812 L 19.4375 30.800781 C 19.445312 30.804688 19.457031 30.804688 19.464844 30.804688 C 19.527344 30.804688 19.585938 30.757812 19.597656 30.695312 C 19.617188 30.621094 19.570312 30.546875 19.492188 30.527344 L 19.230469 30.46875 L 18.949219 30.40625 L 18.4375 30.292969 Z M 18.445312 30.292969 " fill-opacity="1" fill-rule="evenodd"/><g clip-path="url(#9ed7ff2a5a)"><path fill="#ecf9fc" d="M 14.210938 30.796875 L 18.78125 31.820312 C 18.40625 32.667969 17.574219 33.265625 16.601562 33.265625 C 15.28125 33.265625 14.207031 32.167969 14.207031 30.816406 C 14.207031 30.808594 14.210938 30.804688 14.210938 30.796875 Z M 16.183594 32.742188 C 16.207031 32.667969 16.164062 32.589844 16.09375 32.566406 C 15.539062 32.398438 15.101562 31.964844 14.914062 31.410156 C 14.890625 31.335938 14.8125 31.300781 14.742188 31.320312 C 14.671875 31.34375 14.632812 31.425781 14.65625 31.496094 C 14.871094 32.140625 15.382812 32.640625 16.015625 32.832031 C 16.03125 32.835938 16.042969 32.839844 16.054688 32.839844 C 16.117188 32.839844 16.167969 32.800781 16.1875 32.738281 Z M 16.183594 32.742188 " fill-opacity="1" fill-rule="evenodd"/></g><g clip-path="url(#7f1b8000d4)"><path fill="#ecf9fc" d="M 20.628906 22.695312 C 19.949219 23.675781 19.363281 24.527344 19.320312 25.191406 L 19.320312 26.449219 L 19.523438 26.496094 L 19.796875 26.554688 L 20.109375 26.625 L 20.109375 25.21875 C 20.125 25.015625 20.261719 24.726562 20.460938 24.386719 C 20.675781 24.019531 20.96875 23.59375 21.273438 23.15625 C 21.363281 23.023438 21.441406 22.910156 21.496094 22.835938 C 21.582031 22.707031 21.65625 22.597656 21.71875 22.507812 C 22.070312 21.984375 22.5625 21.160156 22.910156 20.214844 C 23.152344 19.546875 23.324219 18.820312 23.324219 18.101562 C 23.324219 16.234375 22.582031 14.542969 21.382812 13.316406 C 20.179688 12.089844 18.527344 11.332031 16.699219 11.332031 C 14.871094 11.332031 13.214844 12.089844 12.019531 13.316406 C 10.816406 14.546875 10.074219 16.234375 10.074219 18.101562 C 10.074219 18.824219 10.25 19.546875 10.492188 20.21875 C 10.835938 21.164062 11.328125 21.988281 11.683594 22.511719 C 11.734375 22.589844 11.8125 22.703125 11.90625 22.835938 C 11.953125 22.914062 12.039062 23.027344 12.128906 23.160156 C 12.371094 23.511719 12.605469 23.855469 12.796875 24.152344 C 12.984375 24.453125 13.136719 24.726562 13.222656 24.960938 L 13.273438 25.09375 L 13.410156 25.125 L 13.71875 25.191406 L 14.136719 25.289062 L 14.019531 24.867188 C 13.933594 24.558594 13.765625 24.21875 13.539062 23.847656 C 13.320312 23.484375 13.050781 23.101562 12.773438 22.695312 C 12.679688 22.558594 12.605469 22.449219 12.554688 22.378906 C 12.492188 22.289062 12.421875 22.183594 12.335938 22.058594 C 12.0625 21.648438 11.691406 21.039062 11.394531 20.335938 C 11.097656 19.644531 10.867188 18.863281 10.871094 18.101562 C 10.871094 16.457031 11.527344 14.964844 12.582031 13.886719 C 13.636719 12.808594 15.09375 12.140625 16.703125 12.140625 C 18.316406 12.140625 19.773438 12.808594 20.828125 13.886719 C 21.886719 14.964844 22.542969 16.457031 22.542969 18.101562 C 22.542969 18.726562 22.390625 19.359375 22.171875 19.949219 C 21.855469 20.808594 21.398438 21.570312 21.074219 22.054688 C 20.980469 22.199219 20.839844 22.398438 20.703125 22.601562 L 20.640625 22.695312 Z M 20.628906 22.695312 " fill-opacity="1" fill-rule="nonzero"/></g><g clip-path="url(#a7c98e062b)"><path fill="#ecf9fc" d="M 16.808594 10.519531 C 17.082031 10.519531 17.304688 10.289062 17.304688 10.011719 L 17.304688 7.988281 C 17.304688 7.710938 17.082031 7.484375 16.808594 7.484375 C 16.535156 7.484375 16.3125 7.710938 16.3125 7.988281 L 16.3125 10.011719 C 16.3125 10.289062 16.535156 10.519531 16.808594 10.519531 Z M 18.699219 10.910156 C 18.449219 10.804688 18.328125 10.503906 18.429688 10.25 L 19.1875 8.378906 C 19.289062 8.121094 19.582031 8 19.832031 8.105469 C 20.085938 8.210938 20.203125 8.507812 20.101562 8.765625 L 19.347656 10.632812 C 19.242188 10.890625 18.949219 11.015625 18.699219 10.910156 Z M 14.695312 10.996094 C 14.949219 10.890625 15.070312 10.59375 14.964844 10.335938 L 14.210938 8.46875 C 14.105469 8.210938 13.8125 8.089844 13.566406 8.191406 C 13.3125 8.296875 13.191406 8.597656 13.296875 8.851562 L 14.050781 10.722656 C 14.152344 10.980469 14.445312 11.101562 14.695312 10.996094 Z M 14.695312 10.996094 " fill-opacity="1" fill-rule="evenodd"/></g><path fill="#ecf9fc" d="M 16.433594 16.410156 C 16.441406 16.324219 16.519531 16.269531 16.601562 16.277344 C 16.683594 16.289062 16.742188 16.367188 16.730469 16.453125 C 16.710938 16.609375 16.753906 16.757812 16.839844 16.875 C 16.929688 16.992188 17.058594 17.078125 17.210938 17.097656 C 17.292969 17.109375 17.351562 17.1875 17.339844 17.269531 C 17.332031 17.355469 17.253906 17.414062 17.171875 17.402344 C 16.933594 17.371094 16.734375 17.242188 16.601562 17.0625 C 16.601562 17.058594 16.597656 17.058594 16.597656 17.054688 C 16.414062 17.113281 16.054688 17.167969 15.808594 16.839844 C 15.761719 16.769531 15.773438 16.671875 15.839844 16.621094 C 15.90625 16.570312 16.003906 16.585938 16.054688 16.652344 C 16.167969 16.808594 16.34375 16.800781 16.460938 16.773438 C 16.429688 16.660156 16.417969 16.535156 16.433594 16.410156 Z M 19.199219 16.757812 Z M 16.738281 15.46875 Z M 16.480469 15.308594 Z M 13.769531 19.015625 Z M 13.96875 17.683594 Z M 14.226562 17.523438 Z M 13.945312 19.265625 Z M 18.886719 18.929688 C 19.054688 18.757812 19.15625 18.523438 19.15625 18.261719 C 19.15625 18.003906 19.054688 17.769531 18.886719 17.597656 C 18.71875 17.425781 18.492188 17.320312 18.234375 17.320312 C 18.152344 17.320312 18.082031 17.253906 18.082031 17.164062 C 18.082031 17.082031 18.152344 17.007812 18.234375 17.007812 C 18.574219 17.007812 18.878906 17.148438 19.101562 17.375 C 19.324219 17.605469 19.460938 17.917969 19.460938 18.257812 C 19.460938 18.355469 19.449219 18.445312 19.429688 18.535156 C 19.523438 18.5625 19.617188 18.578125 19.722656 18.578125 C 20.261719 18.578125 20.703125 18.15625 20.746094 17.613281 C 20.980469 17.472656 21.136719 17.210938 21.136719 16.910156 C 21.136719 16.558594 20.914062 16.253906 20.609375 16.140625 C 20.503906 16.347656 20.34375 16.507812 20.15625 16.625 C 19.886719 16.789062 19.558594 16.847656 19.230469 16.761719 L 19.214844 16.757812 L 19.199219 16.746094 C 19.125 16.710938 19.09375 16.613281 19.132812 16.539062 C 19.167969 16.476562 19.238281 16.441406 19.304688 16.457031 C 19.550781 16.523438 19.800781 16.480469 20.003906 16.355469 C 20.207031 16.234375 20.363281 16.035156 20.425781 15.78125 C 20.460938 15.648438 20.464844 15.515625 20.441406 15.382812 C 20.324219 15.09375 20.101562 14.828125 19.800781 14.652344 C 19.789062 14.648438 19.773438 14.644531 19.761719 14.640625 C 19.726562 14.628906 19.699219 14.613281 19.679688 14.585938 C 19.640625 14.570312 19.601562 14.546875 19.5625 14.535156 C 19.136719 14.367188 18.691406 14.394531 18.339844 14.574219 C 18.15625 14.285156 17.839844 14.101562 17.480469 14.101562 C 17.261719 14.101562 17.058594 14.171875 16.890625 14.289062 C 16.921875 14.367188 16.941406 14.449219 16.953125 14.53125 C 17.003906 14.847656 16.9375 15.179688 16.742188 15.460938 C 16.699219 15.523438 16.617188 15.546875 16.550781 15.511719 C 16.480469 15.472656 16.445312 15.378906 16.484375 15.304688 L 16.5 15.28125 C 16.648438 15.070312 16.699219 14.816406 16.660156 14.582031 C 16.636719 14.445312 16.585938 14.3125 16.503906 14.199219 C 16.339844 14.082031 16.140625 14.015625 15.925781 14.015625 C 15.382812 14.015625 14.933594 14.449219 14.898438 15 C 14.722656 14.855469 14.496094 14.765625 14.253906 14.765625 C 14.214844 14.765625 14.175781 14.769531 14.140625 14.773438 C 14.125 14.785156 14.105469 14.796875 14.082031 14.800781 C 13.835938 14.863281 13.640625 15.023438 13.523438 15.230469 C 13.402344 15.4375 13.359375 15.695312 13.421875 15.945312 C 13.484375 16.195312 13.640625 16.398438 13.84375 16.519531 C 14.046875 16.640625 14.296875 16.6875 14.542969 16.621094 L 14.5625 16.617188 L 14.582031 16.617188 C 14.664062 16.617188 14.734375 16.6875 14.734375 16.773438 C 14.734375 16.847656 14.683594 16.914062 14.617188 16.925781 C 14.289062 17.007812 13.964844 16.953125 13.695312 16.789062 C 13.425781 16.625 13.214844 16.355469 13.132812 16.019531 L 13.128906 16 C 13.117188 15.945312 13.109375 15.890625 13.101562 15.835938 C 12.632812 15.933594 12.28125 16.355469 12.28125 16.867188 C 12.28125 17.160156 12.402344 17.433594 12.597656 17.625 C 12.449219 17.804688 12.363281 18.035156 12.363281 18.289062 C 12.363281 18.457031 12.402344 18.617188 12.46875 18.757812 C 12.484375 18.765625 12.492188 18.777344 12.503906 18.789062 C 12.648438 19 12.871094 19.128906 13.101562 19.171875 C 13.335938 19.210938 13.582031 19.15625 13.789062 19.007812 C 13.992188 18.859375 14.121094 18.632812 14.160156 18.398438 C 14.199219 18.160156 14.148438 17.910156 14 17.699219 L 13.988281 17.679688 C 13.949219 17.601562 13.980469 17.507812 14.054688 17.472656 C 14.121094 17.4375 14.203125 17.457031 14.242188 17.519531 C 14.441406 17.800781 14.507812 18.132812 14.457031 18.449219 C 14.40625 18.765625 14.238281 19.0625 13.960938 19.261719 C 13.925781 19.289062 13.886719 19.3125 13.847656 19.335938 C 13.847656 19.347656 13.847656 19.359375 13.847656 19.367188 C 13.847656 19.949219 14.308594 20.417969 14.875 20.417969 C 15.179688 20.417969 15.449219 20.285156 15.636719 20.070312 L 15.652344 20.054688 C 15.667969 20.0625 15.683594 20.070312 15.695312 20.078125 C 15.714844 20.644531 15.539062 21.347656 15.15625 22.191406 C 16.050781 21.660156 16.695312 20.796875 17.097656 19.597656 C 17.117188 19.597656 17.136719 19.601562 17.160156 19.601562 C 17.453125 19.601562 17.710938 19.4375 17.847656 19.199219 C 17.820312 18.992188 17.726562 18.808594 17.589844 18.667969 C 17.421875 18.496094 17.195312 18.390625 16.9375 18.390625 C 16.855469 18.390625 16.785156 18.320312 16.785156 18.234375 C 16.785156 18.152344 16.851562 18.078125 16.9375 18.078125 C 17.277344 18.078125 17.582031 18.21875 17.800781 18.445312 C 18 18.648438 18.128906 18.914062 18.15625 19.210938 C 18.160156 19.214844 18.167969 19.21875 18.175781 19.222656 C 18.195312 19.210938 18.222656 19.203125 18.246094 19.203125 C 18.496094 19.203125 18.726562 19.097656 18.898438 18.929688 Z M 17.601562 15.410156 C 17.554688 15.34375 17.566406 15.246094 17.632812 15.195312 C 17.699219 15.144531 17.796875 15.15625 17.847656 15.226562 C 17.960938 15.382812 18.136719 15.375 18.253906 15.347656 C 18.222656 15.230469 18.210938 15.109375 18.226562 14.984375 C 18.238281 14.898438 18.316406 14.839844 18.398438 14.851562 C 18.480469 14.859375 18.539062 14.9375 18.527344 15.023438 C 18.507812 15.179688 18.550781 15.332031 18.636719 15.449219 C 18.722656 15.566406 18.855469 15.644531 19.007812 15.671875 C 19.089844 15.679688 19.144531 15.757812 19.136719 15.84375 C 19.125 15.929688 19.050781 15.984375 18.964844 15.976562 C 18.730469 15.941406 18.53125 15.816406 18.398438 15.636719 C 18.398438 15.632812 18.394531 15.632812 18.394531 15.628906 C 18.207031 15.6875 17.847656 15.742188 17.605469 15.410156 Z M 15.074219 18.273438 C 15.3125 18.308594 15.511719 18.433594 15.644531 18.613281 C 15.644531 18.617188 15.648438 18.617188 15.648438 18.621094 C 15.832031 18.5625 16.191406 18.507812 16.433594 18.835938 C 16.484375 18.90625 16.472656 19.003906 16.40625 19.054688 C 16.339844 19.105469 16.242188 19.09375 16.191406 19.023438 C 16.078125 18.867188 15.898438 18.875 15.785156 18.902344 C 15.816406 19.019531 15.828125 19.140625 15.808594 19.265625 C 15.800781 19.351562 15.722656 19.410156 15.640625 19.398438 C 15.558594 19.386719 15.5 19.308594 15.511719 19.226562 C 15.53125 19.070312 15.488281 18.917969 15.402344 18.800781 C 15.316406 18.683594 15.183594 18.601562 15.03125 18.578125 C 14.949219 18.570312 14.890625 18.492188 14.902344 18.40625 C 14.910156 18.320312 14.988281 18.261719 15.070312 18.273438 Z M 15.074219 18.273438 " fill-opacity="1" fill-rule="evenodd"/></svg>